<svg xmlns="http://www.w3.org/2000/svg" viewBox="0 0 1254 1254">
<rect width="1254" height="1254" rx="217" ry="217" fill="#040C17"/>
<g transform="translate(0.000000,1254.000000) scale(0.100000,-0.100000)" fill="#F8F9F9" stroke="none">
<path d="M4295 9545 l-25 -24 0 -1524 c0 -1277 2 -1526 14 -1536 9 -8 120 -11
387 -9 l374 3 5 250 5 250 1913 3 c2114 2 1986 6 2127 -61 240 -115 389 -345
389 -602 0 -106 -20 -189 -71 -294 -48 -101 -177 -231 -282 -286 -155 -80 -55
-75 -1518 -75 -716 0 -1308 -3 -1317 -6 -14 -6 -16 -131 -16 -1319 0 -1181 2
-1315 16 -1329 13 -14 61 -16 375 -16 346 0 360 1 379 20 20 20 20 33 20 955
l0 934 998 4 c897 3 1004 5 1066 20 483 119 853 433 1029 872 121 301 137 581
53 890 -102 376 -377 710 -735 893 -166 85 -312 131 -481 152 -55 6 -751 10
-2017 10 l-1933 0 2 538 3 537 1455 5 c800 3 1461 9 1468 13 17 12 18 727 0
745 -9 9 -431 12 -1835 12 l-1824 0 -24 -25z"/>
</g>
<g transform="translate(0.000000,1254.000000) scale(0.100000,-0.100000)" fill="#F11533" stroke="none">
<path d="M3771 6702 c-19 -9 -44 -30 -55 -45 l-21 -28 -3 -1630 c-2 -1795 -6
-1678 60 -1719 65 -40 159 -16 193 49 14 27 15 202 13 1670 l-3 1639 -25 27
c-26 29 -77 55 -107 55 -10 0 -33 -8 -52 -18z"/>
<path d="M3245 6178 c-57 -45 -55 8 -55 -1199 0 -1017 1 -1114 17 -1146 21
-45 67 -73 118 -73 52 0 84 17 112 59 l23 34 0 1124 c0 1241 4 1162 -63 1203
-44 28 -116 27 -152 -2z"/>
<path d="M4261 6072 c-19 -10 -43 -34 -53 -53 -17 -32 -18 -85 -18 -1067 0
-1131 -3 -1074 58 -1106 72 -37 142 -23 186 37 21 28 21 32 21 1071 0 987 -1
1043 -18 1069 -41 63 -113 83 -176 49z"/>
<path d="M4785 5703 c-38 -10 -74 -43 -90 -86 -14 -37 -15 -114 -13 -692 3
-724 -1 -681 71 -726 38 -24 102 -21 143 6 55 36 55 27 52 756 l-3 671 -37 34
c-21 19 -46 34 -57 34 -11 0 -25 2 -33 4 -7 2 -22 1 -33 -1z"/>
<path d="M2760 5558 c-72 -48 -70 -32 -70 -613 0 -580 -2 -565 69 -612 61 -41
139 -20 181 49 19 32 20 52 20 561 0 434 -3 533 -14 555 -40 76 -122 103 -186
60z"/>
<path d="M5231 5224 c-47 -39 -53 -76 -49 -306 l3 -208 38 -37 c33 -34 43 -38
86 -38 58 0 97 24 124 76 16 30 17 59 15 252 l-3 219 -37 34 c-33 30 -44 34
-92 34 -44 0 -60 -5 -85 -26z"/>
<path d="M2340 5163 c-81 -26 -90 -48 -90 -227 l0 -145 30 -34 c35 -40 76 -51
127 -34 68 23 76 46 76 215 1 169 -7 192 -68 218 -36 14 -49 16 -75 7z"/>
</g>
</svg>
